<svg viewBox="0 0 31 38" fill="none" xmlns="http://www.w3.org/2000/svg"><path d="M0 32.3V28.5H3.8V15.2C3.8 12.57 4.59 10.24 6.18 8.19C7.76 6.15 9.82 4.81 12.35 4.18V2.85C12.35 2.06 12.63 1.39 13.18 0.83C13.74 0.28 14.41 0 15.2 0C15.99 0 16.66 0.28 17.22 0.83C17.77 1.39 18.05 2.06 18.05 2.85V4.18C20.58 4.81 22.64 6.15 24.23 8.19C25.81 10.24 26.6 12.57 26.6 15.2V28.5H30.4V32.3H0ZM15.2 38C14.16 38 13.26 37.63 12.52 36.88C11.77 36.14 11.4 35.24 11.4 34.2H19C19 35.24 18.63 36.14 17.88 36.88C17.14 37.63 16.25 38 15.2 38ZM7.6 28.5H22.8V15.2C22.8 13.11 22.06 11.32 20.57 9.83C19.08 8.34 17.29 7.6 15.2 7.6C13.11 7.6 11.32 8.34 9.83 9.83C8.34 11.32 7.6 13.11 7.6 15.2V28.5Z" fill="#4D4635"></path></svg>