<svg viewBox="0 0 36 40" fill="none" xmlns="http://www.w3.org/2000/svg"><path d="M6 40C4.33 40 2.92 39.42 1.75 38.25C0.58 37.08 0 35.67 0 34V28H6V0L9 3L12 0L15 3L18 0L21 3L24 0L27 3L30 0L33 3L36 0V34C36 35.67 35.42 37.08 34.25 38.25C33.08 39.42 31.67 40 30 40H6ZM30 36C30.57 36 31.04 35.81 31.43 35.42C31.81 35.04 32 34.57 32 34V6H10V28H28V34C28 34.57 28.19 35.04 28.58 35.42C28.96 35.81 29.43 36 30 36ZM12 14V10H24V14H12ZM12 20V16H24V20H12ZM28 14C27.43 14 26.96 13.81 26.58 13.43C26.19 13.04 26 12.57 26 12C26 11.43 26.19 10.96 26.58 10.58C26.96 10.19 27.43 10 28 10C28.57 10 29.04 10.19 29.43 10.58C29.81 10.96 30 11.43 30 12C30 12.57 29.81 13.04 29.43 13.43C29.04 13.81 28.57 14 28 14ZM28 20C27.43 20 26.96 19.81 26.58 19.43C26.19 19.04 26 18.57 26 18C26 17.43 26.19 16.96 26.58 16.58C26.96 16.19 27.43 16 28 16C28.57 16 29.04 16.19 29.43 16.58C29.81 16.96 30 17.43 30 18C30 18.57 29.81 19.04 29.43 19.43C29.04 19.81 28.57 20 28 20ZM6 36H24V32H4V34C4 34.57 4.19 35.04 4.58 35.42C4.96 35.81 5.43 36 6 36ZM4 36C4 36 4 35.81 4 35.42C4 35.04 4 34.57 4 34V32V36Z" fill="#5D5E61"></path></svg>