<svg viewBox="0 0 40 40" fill="none" xmlns="http://www.w3.org/2000/svg"><path d="M18 30H22V22H30V18H22V10H18V18H10V22H18V30ZM20 40C17.23 40 14.63 39.48 12.2 38.42C9.77 37.38 7.65 35.95 5.85 34.15C4.05 32.35 2.63 30.23 1.58 27.8C0.53 25.37 0 22.77 0 20C0 17.23 0.53 14.63 1.58 12.2C2.63 9.77 4.05 7.65 5.85 5.85C7.65 4.05 9.77 2.63 12.2 1.58C14.63 0.53 17.23 0 20 0C22.77 0 25.37 0.53 27.8 1.58C30.23 2.63 32.35 4.05 34.15 5.85C35.95 7.65 37.38 9.77 38.42 12.2C39.48 14.63 40 17.23 40 20C40 22.77 39.48 25.37 38.42 27.8C37.38 30.23 35.95 32.35 34.15 34.15C32.35 35.95 30.23 37.38 27.8 38.42C25.37 39.48 22.77 40 20 40ZM20 36C24.47 36 28.25 34.45 31.35 31.35C34.45 28.25 36 24.47 36 20C36 15.53 34.45 11.75 31.35 8.65C28.25 5.55 24.47 4 20 4C15.53 4 11.75 5.55 8.65 8.65C5.55 11.75 4 15.53 4 20C4 24.47 5.55 28.25 8.65 31.35C11.75 34.45 15.53 36 20 36Z" fill="#5D5E61"></path></svg>