<svg viewBox="0 0 36 36" fill="none" xmlns="http://www.w3.org/2000/svg"><path d="M18 36C12.97 36 8.71 35.23 5.23 33.67C1.74 32.13 0 30.23 0 28V8C0 5.8 1.76 3.92 5.28 2.35C8.79 0.78 13.03 0 18 0C22.97 0 27.21 0.78 30.73 2.35C34.24 3.92 36 5.8 36 8V28C36 30.23 34.26 32.13 30.78 33.67C27.29 35.23 23.03 36 18 36ZM18 12.05C20.97 12.05 23.95 11.63 26.95 10.78C29.95 9.93 31.63 9.02 32 8.05C31.63 7.08 29.96 6.17 26.98 5.3C23.99 4.43 21 4 18 4C14.97 4 11.99 4.43 9.07 5.28C6.16 6.13 4.47 7.05 4 8.05C4.47 9.05 6.16 9.97 9.07 10.8C11.99 11.63 14.97 12.05 18 12.05ZM18 22C19.4 22 20.75 21.93 22.05 21.8C23.35 21.67 24.59 21.48 25.78 21.23C26.96 20.98 28.08 20.67 29.13 20.3C30.18 19.93 31.13 19.52 32 19.05V13.05C31.13 13.52 30.18 13.93 29.13 14.3C28.08 14.67 26.96 14.98 25.78 15.23C24.59 15.48 23.35 15.67 22.05 15.8C20.75 15.93 19.4 16 18 16C16.6 16 15.23 15.93 13.9 15.8C12.57 15.67 11.31 15.48 10.13 15.23C8.94 14.98 7.83 14.67 6.8 14.3C5.77 13.93 4.83 13.52 4 13.05V19.05C4.83 19.52 5.77 19.93 6.8 20.3C7.83 20.67 8.94 20.98 10.13 21.23C11.31 21.48 12.57 21.67 13.9 21.8C15.23 21.93 16.6 22 18 22ZM18 32C19.53 32 21.09 31.88 22.68 31.65C24.26 31.42 25.72 31.11 27.05 30.73C28.38 30.34 29.5 29.91 30.4 29.43C31.3 28.94 31.83 28.45 32 27.95V23.05C31.13 23.52 30.18 23.93 29.13 24.3C28.08 24.67 26.96 24.98 25.78 25.23C24.59 25.48 23.35 25.67 22.05 25.8C20.75 25.93 19.4 26 18 26C16.6 26 15.23 25.93 13.9 25.8C12.57 25.67 11.31 25.48 10.13 25.23C8.94 24.98 7.83 24.67 6.8 24.3C5.77 23.93 4.83 23.52 4 23.05V28C4.17 28.5 4.69 28.98 5.58 29.45C6.46 29.92 7.57 30.34 8.9 30.73C10.23 31.11 11.7 31.42 13.3 31.65C14.9 31.88 16.47 32 18 32Z" fill="#5D5E61"></path></svg>