<svg viewBox="0 0 39 38" fill="none" xmlns="http://www.w3.org/2000/svg"><path d="M13.87 38L13.11 31.92C12.7 31.76 12.31 31.57 11.95 31.35C11.58 31.13 11.23 30.89 10.88 30.64L5.23 33.01L0 23.99L4.89 20.28C4.86 20.06 4.85 19.85 4.85 19.64C4.85 19.44 4.85 19.22 4.85 19C4.85 18.78 4.85 18.56 4.85 18.36C4.85 18.15 4.86 17.94 4.89 17.72L0 14.01L5.23 4.99L10.88 7.36C11.23 7.11 11.59 6.87 11.97 6.65C12.35 6.43 12.73 6.24 13.11 6.08L13.87 0H24.32L25.08 6.08C25.49 6.24 25.88 6.43 26.24 6.65C26.61 6.87 26.96 7.11 27.31 7.36L32.97 4.99L38.19 14.01L33.3 17.72C33.33 17.94 33.35 18.15 33.35 18.36C33.35 18.56 33.35 18.78 33.35 19C33.35 19.22 33.35 19.44 33.35 19.64C33.35 19.85 33.31 20.06 33.25 20.28L38.14 23.99L32.92 33.01L27.31 30.64C26.96 30.89 26.6 31.13 26.22 31.35C25.84 31.57 25.46 31.76 25.08 31.92L24.32 38H13.87ZM17.2 34.2H20.95L21.61 29.17C22.59 28.91 23.5 28.54 24.34 28.05C25.18 27.56 25.95 26.96 26.65 26.27L31.35 28.22L33.2 24.99L29.12 21.9C29.28 21.45 29.39 20.99 29.45 20.5C29.51 20.01 29.55 19.51 29.55 19C29.55 18.49 29.51 17.99 29.45 17.5C29.39 17.01 29.28 16.55 29.12 16.1L33.2 13.02L31.35 9.79L26.65 11.78C25.95 11.05 25.18 10.44 24.34 9.95C23.5 9.46 22.59 9.09 21.61 8.84L21 3.8H17.24L16.58 8.84C15.6 9.09 14.69 9.46 13.85 9.95C13.01 10.44 12.24 11.04 11.54 11.73L6.84 9.79L4.99 13.02L9.07 16.06C8.91 16.53 8.8 17.01 8.74 17.48C8.68 17.95 8.65 18.46 8.65 19C8.65 19.51 8.68 20 8.74 20.47C8.8 20.95 8.91 21.42 9.07 21.9L4.99 24.99L6.84 28.22L11.54 26.22C12.24 26.95 13.01 27.56 13.85 28.05C14.69 28.54 15.6 28.91 16.58 29.17L17.2 34.2ZM19.19 25.65C21.03 25.65 22.59 25 23.89 23.7C25.19 22.4 25.84 20.84 25.84 19C25.84 17.16 25.19 15.6 23.89 14.3C22.59 13 21.03 12.35 19.19 12.35C17.32 12.35 15.75 13 14.46 14.3C13.18 15.6 12.54 17.16 12.54 19C12.54 20.84 13.18 22.4 14.46 23.7C15.75 25 17.32 25.65 19.19 25.65Z" fill="#4D4635"></path></svg>