<svg viewBox="0 0 32 32" fill="none" xmlns="http://www.w3.org/2000/svg"><path d="M16 16C13.8 16 11.92 15.22 10.35 13.65C8.78 12.08 8 10.2 8 8C8 5.8 8.78 3.92 10.35 2.35C11.92 0.78 13.8 0 16 0C18.2 0 20.08 0.78 21.65 2.35C23.22 3.92 24 5.8 24 8C24 10.2 23.22 12.08 21.65 13.65C20.08 15.22 18.2 16 16 16ZM0 32V26.4C0 25.27 0.29 24.23 0.88 23.28C1.46 22.33 2.23 21.6 3.2 21.1C5.27 20.07 7.37 19.29 9.5 18.77C11.63 18.26 13.8 18 16 18C18.2 18 20.37 18.26 22.5 18.77C24.63 19.29 26.73 20.07 28.8 21.1C29.77 21.6 30.54 22.33 31.13 23.28C31.71 24.23 32 25.27 32 26.4V32H0ZM4 28H28V26.4C28 26.03 27.91 25.7 27.73 25.4C27.54 25.1 27.3 24.87 27 24.7C25.2 23.8 23.38 23.13 21.55 22.68C19.72 22.23 17.87 22 16 22C14.13 22 12.28 22.23 10.45 22.68C8.62 23.13 6.8 23.8 5 24.7C4.7 24.87 4.46 25.1 4.28 25.4C4.09 25.7 4 26.03 4 26.4V28ZM16 12C17.1 12 18.04 11.61 18.83 10.83C19.61 10.04 20 9.1 20 8C20 6.9 19.61 5.96 18.83 5.18C18.04 4.39 17.1 4 16 4C14.9 4 13.96 4.39 13.18 5.18C12.39 5.96 12 6.9 12 8C12 9.1 12.39 10.04 13.18 10.83C13.96 11.61 14.9 12 16 12Z" fill="#5D5E61"></path></svg>