<svg viewBox="0 0 38 36" fill="none" xmlns="http://www.w3.org/2000/svg"><path d="M4 32V4C4 4 4 4.74 4 6.23C4 7.71 4 9.63 4 12V24C4 26.37 4 28.29 4 29.78C4 31.26 4 32 4 32ZM4 36C2.9 36 1.96 35.61 1.18 34.83C0.39 34.04 0 33.1 0 32V4C0 2.9 0.39 1.96 1.18 1.18C1.96 0.39 2.9 0 4 0H32C33.1 0 34.04 0.39 34.83 1.18C35.61 1.96 36 2.9 36 4V9H32V4H4V32H32V27H36V32C36 33.1 35.61 34.04 34.83 34.83C34.04 35.61 33.1 36 32 36H4ZM20 28C18.9 28 17.96 27.61 17.18 26.83C16.39 26.04 16 25.1 16 24V12C16 10.9 16.39 9.96 17.18 9.18C17.96 8.39 18.9 8 20 8H34C35.1 8 36.04 8.39 36.83 9.18C37.61 9.96 38 10.9 38 12V24C38 25.1 37.61 26.04 36.83 26.83C36.04 27.61 35.1 28 34 28H20ZM34 24V12H20V24H34ZM26 21C26.83 21 27.54 20.71 28.13 20.13C28.71 19.54 29 18.83 29 18C29 17.17 28.71 16.46 28.13 15.88C27.54 15.29 26.83 15 26 15C25.17 15 24.46 15.29 23.88 15.88C23.29 16.46 23 17.17 23 18C23 18.83 23.29 19.54 23.88 20.13C24.46 20.71 25.17 21 26 21Z" fill="#554300"></path></svg>